<svg xmlns="http://www.w3.org/2000/svg" width="64" height="64" fill="none"><circle cx="32" cy="32" r="32" fill="#000"/><path fill="#fff" d="M27.912 25c0 3.314-2.89 6-6.456 6C17.89 31 15 28.314 15 25s2.89-6 6.456-6c3.566 0 6.456 2.686 6.456 6ZM49.563 25c0 3.314-2.89 6-6.456 6-3.566 0-6.456-2.686-6.456-6s2.89-6 6.456-6c3.566 0 6.456 2.686 6.456 6Z"/><path fill="#fff" d="M25 24h16v2H25zM32.822 45.814a1 1 0 0 1-1.644 0l-.689-.995a1 1 0 0 1 .822-1.569h1.378a1 1 0 0 1 .822 1.57l-.689.994ZM32 47l2.598 3.75h-5.196L32 47ZM32 57l-2.598-6h5.196L32 57Z"/></svg>